<?xml version="1.0" encoding="utf-8"?>
<!-- Generator: Adobe Illustrator 21.1.0, SVG Export Plug-In . SVG Version: 6.00 Build 0)  -->
<svg version="1.1" xmlns="http://www.w3.org/2000/svg" xmlns:xlink="http://www.w3.org/1999/xlink" x="0px" y="0px"
	 viewBox="0 0 1920 1080" style="enable-background:new 0 0 1920 1080;" xml:space="preserve">
<style type="text/css">
	.st0{fill:#FFFFFF;}
	.st1{opacity:0.7;}
	.st2{opacity:0.2;}
	.st3{fill:#00FFFF;}
</style>
<g id="photo">
</g>
<g id="text">
</g>
<g id="outline">
</g>
<g id="fill">
</g>
<g id="ray">
	<g>
		<path class="st0" d="M677.7,522.2c0.1-0.1,0.1-0.1,0.2-0.2c0,0,0,0,0,0c0,0,0,0,0,0c0.3-0.5,0.6-1.1,0.5-1.7c0-0.1,0-0.3,0-0.4
			c-0.1-0.6-0.3-1.2-0.8-1.6c0,0,0,0,0,0c0,0,0,0,0,0c0,0-0.1-0.1-0.1-0.1c0,0-0.1,0-0.1-0.1c0,0,0,0,0,0c-0.1,0-0.1-0.1-0.2-0.1
			c-0.4-0.3-0.9-0.4-1.4-0.5c-0.1,0-0.1,0-0.2,0c-1.9-0.2-3.7-0.5-5.6-0.7c-2.5-0.3-5-0.7-7.5-1c0.1-0.3,0.1-0.5,0.2-0.8
			c0.7-3.1,1.4-6.2,2.2-9.4c0.9-3.8,1.7-7.6,2.6-11.3c0.7-3.3,1.5-6.5,2.3-9.8c0.4-1.6,0.8-3.2,1.1-4.8c0,0,0,0,0-0.1
			c0.3-1.2-0.2-2.6-1.3-3.2c-1.1-0.6-2.5-0.5-3.4,0.4c-1.3,1.3-2.6,2.6-3.9,3.9c-3.1,3.1-6.2,6.2-9.3,9.3
			c-3.8,3.8-7.6,7.6-11.4,11.4c-3.3,3.3-6.5,6.5-9.8,9.8c-1.6,1.6-3.2,3.1-4.8,4.8c0,0,0,0-0.1,0.1c-0.8,0.8-1,2.1-0.6,3.1
			c0.2,0.5,0.5,0.8,0.9,1.1c0.5,0.4,1,0.5,1.7,0.6c1.9,0.2,3.7,0.5,5.6,0.7c2.5,0.3,5,0.7,7.5,1c-0.1,0.3-0.1,0.5-0.2,0.8
			c-0.7,3.1-1.4,6.2-2.2,9.4c-0.9,3.8-1.7,7.6-2.6,11.3c-0.7,3.3-1.5,6.5-2.3,9.8c-0.4,1.6-0.8,3.2-1.1,4.8c0,0,0,0,0,0.1
			c-0.3,1.2,0.2,2.6,1.3,3.2c1.1,0.6,2.5,0.5,3.4-0.4c1.3-1.3,2.6-2.6,3.9-3.9c3.1-3.1,6.2-6.2,9.3-9.3c3.8-3.8,7.6-7.6,11.4-11.4
			c3.3-3.3,6.5-6.5,9.8-9.8c1.6-1.6,3.2-3.2,4.8-4.8C677.5,522.4,677.6,522.3,677.7,522.2L677.7,522.2
			C677.6,522.3,677.6,522.3,677.7,522.2z M660.3,531.6c-3.8,3.8-7.6,7.6-11.4,11.4c-2.5,2.5-5.1,5.1-7.6,7.6
			c0.3-1.2,0.5-2.3,0.8-3.5c0.9-3.8,1.7-7.6,2.6-11.3c0.7-3.3,1.5-6.5,2.3-9.8c0.4-1.6,0.8-3.2,1.1-4.8c0,0,0,0,0-0.1
			c0.2-0.9,0.1-1.7-0.5-2.5c-0.6-0.8-1.3-1-2.2-1.1c-1.9-0.2-3.7-0.5-5.6-0.7c-1.6-0.2-3.2-0.4-4.9-0.6c3.1-3.1,6.1-6.1,9.2-9.2
			c3.8-3.8,7.6-7.6,11.4-11.4c2.5-2.5,5.1-5.1,7.6-7.6c-0.3,1.2-0.5,2.3-0.8,3.5c-0.9,3.8-1.7,7.6-2.6,11.3
			c-0.7,3.3-1.5,6.5-2.3,9.8c-0.4,1.6-0.8,3.2-1.1,4.8c0,0,0,0,0,0.1c-0.2,0.9-0.1,1.7,0.5,2.5c0.6,0.8,1.3,1,2.2,1.1
			c1.9,0.2,3.7,0.5,5.6,0.7c1.6,0.2,3.2,0.4,4.9,0.7C666.5,525.4,663.4,528.5,660.3,531.6z"/>
	</g>
</g>
<g id="eye">
</g>
<g id="clock">
</g>
<g id="hand">
</g>
</svg>
