<?xml version="1.0" encoding="utf-8"?>
<!-- Generator: Adobe Illustrator 21.1.0, SVG Export Plug-In . SVG Version: 6.00 Build 0)  -->
<svg version="1.1" xmlns="http://www.w3.org/2000/svg" xmlns:xlink="http://www.w3.org/1999/xlink" x="0px" y="0px"
	 viewBox="0 0 1920 1080" style="enable-background:new 0 0 1920 1080;" xml:space="preserve">
<style type="text/css">
	.st0{fill:#FFFFFF;}
	.st1{opacity:0.7;}
	.st2{opacity:0.2;}
	.st3{fill:#00FFFF;}
</style>
<g id="photo">
</g>
<g id="text">
	<g>
		<g>
			<path class="st0" d="M802.4,506.4h-9.3v-6.3h25.8v6.3h-9.3v26.2h-7.2V506.4z"/>
		</g>
		<g>
			<path class="st0" d="M822.8,500.1h22.1v6.6h-15v6.1h14.1v6.6H830v6.6h15.8v6.6h-23V500.1z"/>
		</g>
		<g>
			<path class="st0" d="M851.8,500.1h7.2V526h13.3v6.6h-20.5V500.1z"/>
		</g>
		<g>
			<path class="st0" d="M876.5,500.1h22.1v6.6h-15v6.1h14.1v6.6h-14.1v6.6h15.8v6.6h-23V500.1z"/>
		</g>
		<g>
			<path class="st0" d="M905.5,500.1h7.2v13.5l12.7-13.5h9.4l-14.5,15.1l15.7,17.4h-10l-13.2-15.5v15.5h-7.2V500.1z"/>
		</g>
		<g>
			<path class="st0" d="M938.3,500.1h7.2v32.6h-7.2V500.1z"/>
		</g>
		<g>
			<path class="st0" d="M952,500.1h9.8l13.8,22.6h0.1v-22.6h7.2v32.6h-9.4l-14.2-23.2h-0.1v23.2H952V500.1z"/>
		</g>
		<g>
			<path class="st0" d="M989.8,500.1h22.1v6.6h-15v6.1h14.1v6.6H997v6.6h15.8v6.6h-23V500.1z"/>
		</g>
		<g>
			<path class="st0" d="M1034.6,508c-1.2-1.5-3.5-2.2-5.2-2.2c-2,0-4.8,0.9-4.8,3.4c0,5.9,15,2.1,15,13.5c0,7.3-5.8,10.7-12.6,10.7
				c-4.2,0-7.9-1.2-10.9-4.1l5.1-5.6c1.5,1.9,3.9,3.1,6.3,3.1c2.3,0,5-1.1,5-3.4c0-6-15.3-2.8-15.3-13.6c0-6.9,6-10.6,12.4-10.6
				c3.7,0,7.2,1,10,3.4L1034.6,508z"/>
		</g>
		<g>
			<path class="st0" d="M1044.8,500.1h7.2v32.6h-7.2V500.1z"/>
		</g>
		<g>
			<path class="st0" d="M1074.6,508c-1.2-1.5-3.5-2.2-5.2-2.2c-2,0-4.8,0.9-4.8,3.4c0,5.9,15,2.1,15,13.5c0,7.3-5.8,10.7-12.6,10.7
				c-4.2,0-7.9-1.2-10.9-4.1l5.1-5.6c1.5,1.9,3.9,3.1,6.3,3.1c2.3,0,5-1.1,5-3.4c0-6-15.3-2.8-15.3-13.6c0-6.9,6-10.6,12.4-10.6
				c3.7,0,7.2,1,10,3.4L1074.6,508z"/>
		</g>
	</g>
</g>
<g id="outline">
</g>
<g id="fill">
</g>
<g id="ray">
</g>
<g id="eye">
</g>
<g id="clock">
</g>
<g id="hand">
	<g>
		<g>
			<g>
				<g>
					<g>
						<path class="st3" d="M1209.8,447.7l-18.1,10.3c-0.4,0.2-0.6,0.6-0.6,1v20.7c0,0.4,0.2,0.8,0.6,1l18.1,10.3
							c0.3,0.2,0.8,0.2,1.1,0l18.1-10.3c0.4-0.2,0.6-0.6,0.6-1V459c0-0.4-0.2-0.8-0.6-1l-18.1-10.3
							C1210.6,447.5,1210.2,447.5,1209.8,447.7z M1209.9,469l-12.7-7.3c-0.7-0.4-0.7-1.4,0-1.8l12.7-7.3c0.3-0.2,0.7-0.2,1,0
							l12.7,7.3c0.7,0.4,0.7,1.4,0,1.8l-12.7,7.3C1210.6,469.2,1210.2,469.2,1209.9,469z"/>
					</g>
				</g>
			</g>
		</g>
		<g>
			<g>
				<path class="st3" d="M1201.8,588.8c-1.4,4-7.6,1.8-6.1-2.2c0,0,4.6-12.1,6.6-16.6c2-4.6,12.4-11,16.5-15.4
					c20.3-21.6,23.2-28.6,33.9-51.1c3.3-7.1-3.8-1-5.5,1.5c-6.2,9.2-12.1,19.7-16.9,29.4l-27.5,14.3c-3.8,2-6.8-3.8-3-5.8l13.1-6.8
					c6.4-12.9-3.5-6.8-8.3-4.8c-6.2,3-17,8.2-18.8,15.5c-3,11.3-7.9,36.2-7.9,36.3c-0.8,4.2-7.2,3-6.4-1.2c0-0.1,5-25.3,8-36.7
					c2.9-10.2,13.4-15.4,22.2-19.7c4.7-2.3,24.6-11.3,19.8,6.2l4-2.1l1-2c-0.8-5.3-1.9-16.5-1.2-21.4c1.2-9.5,12-12.9,17.2-5.7
					c7.6-9.6,23.2-9,17.1,3.8c-11.8,24.9-14.5,32-35.9,54.8c-4.1,4.4-9.7,8.1-14.2,12.2c-0.7,0.6-0.7,0.6-1,1.3
					C1206.4,576.6,1201.8,588.7,1201.8,588.8L1201.8,588.8z M1231.9,517.3c1.6-2.9,3.5-6,5.3-9.1c1.7-6-4.9-7.2-5.6-1.3
					C1231.3,508.8,1231.6,513.2,1231.9,517.3z"/>
			</g>
		</g>
	</g>
</g>
</svg>
