<?xml version="1.0" encoding="utf-8"?>
<!-- Generator: Adobe Illustrator 21.1.0, SVG Export Plug-In . SVG Version: 6.00 Build 0)  -->
<svg version="1.1" xmlns="http://www.w3.org/2000/svg" xmlns:xlink="http://www.w3.org/1999/xlink" x="0px" y="0px"
	 viewBox="0 0 1920 1080" style="enable-background:new 0 0 1920 1080;" xml:space="preserve">
<style type="text/css">
	.st0{fill:#FFFFFF;}
	.st1{opacity:0.7;}
	.st2{opacity:0.2;}
	.st3{fill:#00FFFF;}
</style>
<g id="photo">
</g>
<g id="text">
</g>
<g id="outline">
</g>
<g id="fill">
</g>
<g id="ray">
</g>
<g id="eye">
	<g>
		<path class="st0" d="M981.3,233.1c-0.8-1.2-22.4-29.1-49.8-29.1s-48.9,27.9-49.8,29.1c-0.8,1.2-0.8,2.9,0,4
			c0.8,1.2,22.4,29.1,49.8,29.1s48.9-27.9,49.8-29.1C982.2,236,982.2,234.3,981.3,233.1z M955.9,235.1c0,13.5-10.9,24.4-24.4,24.4
			s-24.4-10.9-24.4-24.4s10.9-24.4,24.4-24.4S955.9,221.7,955.9,235.1z M888.9,235.1c2.5-3,7.9-8.7,14.8-13.8
			c-2,4.2-3.2,8.9-3.2,13.8c0,5,1.2,9.6,3.2,13.8C896.8,243.9,891.4,238.2,888.9,235.1z M959.5,248.9c2-4.2,3.2-8.9,3.2-13.8
			c0-5-1.2-9.6-3.2-13.8c7.1,5.2,12.3,10.9,14.8,13.8C971.8,238.2,966.4,243.9,959.5,248.9z M914.7,235.1c0-9.2,7.6-16.8,16.8-16.8
			c1.5,0,2.9,0.2,4.2,0.5c-2.5,2-4.2,5-4.2,8.6c0,5.9,4.9,10.8,10.8,10.8c2.2,0,4.2-0.7,5.9-1.8c-0.7,8.7-7.9,15.5-16.8,15.5
			C922.3,252,914.7,244.4,914.7,235.1z"/>
	</g>
</g>
<g id="clock">
</g>
<g id="hand">
</g>
</svg>
