<?xml version="1.0" encoding="utf-8"?>
<!-- Generator: Adobe Illustrator 21.1.0, SVG Export Plug-In . SVG Version: 6.00 Build 0)  -->
<svg version="1.1" xmlns="http://www.w3.org/2000/svg" xmlns:xlink="http://www.w3.org/1999/xlink" x="0px" y="0px"
	 viewBox="0 0 1920 1080" style="enable-background:new 0 0 1920 1080;" xml:space="preserve">
<style type="text/css">
	.st0{fill:#FFFFFF;}
	.st1{opacity:0.7;}
	.st2{opacity:0.2;}
	.st3{fill:#00FFFF;}
</style>
<g id="photo">
</g>
<g id="text">
</g>
<g id="outline">
	<g class="st1">
		<g>
			<path class="st0" d="M1281.2,518.7c0.6-90.5-33.1-175.6-95.1-240.6l0.1-0.1l-6-6l-6-6l-0.1,0.1c-65-61.9-150-95.6-240.6-95.1
				c-90.5,0.6-176,35.3-241.7,98l-0.1-0.1l-6,6l-6,6l0.1,0.1c-62.7,65.7-97.5,151.2-98,241.7c-0.6,90.5,33.1,175.6,95.1,240.6
				l-0.1,0.1l6,6l6,6l0.1-0.1c64.5,61.4,148.7,95.1,238.4,95.1c0.7,0,1.5,0,2.2,0c90.5-0.6,176-35.3,241.7-98l0.1,0.1l6-6l6-6
				l-0.1-0.1C1245.9,694.6,1280.7,609.1,1281.2,518.7z M701,763.3l7.2-7.2l62.3-62.3c43.9,40.9,100.8,63.4,161.1,63.4
				s117.2-22.4,161.1-63.4l66.5,66.5c-62.5,59.5-143.8,92.5-229.8,93C843.5,853.9,762.7,822,701,763.3z M935.8,188
				c85.1,0,165.1,31.9,226.3,90.1l-34.6,34.6l-34.9,34.9c-43.9-40.9-100.8-63.4-161.1-63.4c-60.3,0-117.2,22.4-161.1,63.4
				l-66.5-66.5c62.5-59.5,143.8-92.5,229.8-93C934.4,188,935.1,188,935.8,188z M931.6,740.1c-56.2,0-112.4-21.4-155.2-64.2
				c-41.5-41.5-64.3-96.6-64.3-155.2c0-58.6,22.8-113.8,64.3-155.2c41.5-41.5,96.6-64.3,155.2-64.3s113.8,22.8,155.2,64.3
				c85.6,85.6,85.6,224.8,0,310.4C1044,718.7,987.8,740.1,931.6,740.1z M725.4,326.6l33,33c-40.9,43.9-63.4,100.8-63.4,161.1
				c0,60.3,22.4,117.2,63.4,161.1l-34.8,34.8L689,751.3C568,624,569.3,421.9,691.9,293.1L725.4,326.6z M1104.7,681.8
				c40.9-43.9,63.4-100.8,63.4-161.1c0-60.3-22.4-117.2-63.4-161.1l69.5-69.5c58.7,61.7,90.6,142.5,90.1,228.4
				c-0.5,86-33.5,167.2-93,229.8L1104.7,681.8z"/>
		</g>
	</g>
</g>
<g id="fill">
	<g class="st2">
		<g id="fill_ray_5_">
			<path class="st0" d="M695.1,520.7c0-60.3,22.4-117.2,63.4-161.1l-33-33l-33.5-33.5C569.3,421.9,568,624,689,751.3l34.7-34.7
				l34.8-34.8C717.5,637.9,695.1,581,695.1,520.7z"/>
		</g>
		<g id="fill_eye_5_">
			<path class="st0" d="M1092.7,347.6l34.9-34.9l34.6-34.6c-61.2-58.2-141.2-90.1-226.3-90.1c-0.7,0-1.4,0-2.1,0
				c-86,0.5-167.2,33.5-229.8,93l66.5,66.5c43.9-40.9,100.8-63.4,161.1-63.4C991.9,284.2,1048.8,306.6,1092.7,347.6z"/>
		</g>
		<g id="fill_clock_5_">
			<path class="st0" d="M931.6,757.2c-60.3,0-117.2-22.4-161.1-63.4l-62.3,62.3l-7.2,7.2c61.7,58.7,142.5,90.6,228.4,90.1
				c86-0.5,167.2-33.5,229.8-93l-66.5-66.5C1048.8,734.8,991.9,757.2,931.6,757.2z"/>
		</g>
		<g id="fill_hand_5_">
			<path class="st0" d="M1168.1,520.7c0,60.3-22.4,117.2-63.4,161.1l66.5,66.5c59.5-62.5,92.5-143.8,93-229.8
				c0.5-85.9-31.4-166.7-90.1-228.4l-69.5,69.5C1145.6,403.5,1168.1,460.4,1168.1,520.7z"/>
		</g>
	</g>
</g>
<g id="ray">
</g>
<g id="eye">
</g>
<g id="clock">
</g>
<g id="hand">
</g>
</svg>
