<?xml version="1.0" encoding="utf-8"?>
<!-- Generator: Adobe Illustrator 21.1.0, SVG Export Plug-In . SVG Version: 6.00 Build 0)  -->
<svg version="1.1" xmlns="http://www.w3.org/2000/svg" xmlns:xlink="http://www.w3.org/1999/xlink" x="0px" y="0px"
	 viewBox="0 0 1920 1080" style="enable-background:new 0 0 1920 1080;" xml:space="preserve">
<style type="text/css">
	.st0{fill:#FFFFFF;}
	.st1{opacity:0.7;}
	.st2{opacity:0.2;}
	.st3{fill:#00FFFF;}
</style>
<g id="photo">
</g>
<g id="text">
</g>
<g id="outline">
</g>
<g id="fill">
</g>
<g id="ray">
</g>
<g id="eye">
</g>
<g id="clock">
	<g>
		<g>
			<path class="st0" d="M931.6,765.1c-19.6,0-35.6,15.9-35.6,35.6c0,19.6,15.9,35.6,35.6,35.6c19.6,0,35.6-15.9,35.6-35.6
				C967.1,781,951.2,765.1,931.6,765.1z M931.6,829.1c-15.7,0-28.4-12.7-28.4-28.4c0-15.7,12.7-28.4,28.4-28.4s28.4,12.7,28.4,28.4
				C960,816.4,947.3,829.1,931.6,829.1z"/>
		</g>
		<g>
			<path class="st0" d="M935.1,799.2v-16.3c0-2-1.6-3.6-3.6-3.6s-3.6,1.6-3.6,3.6v17.8c0,0.9,0.4,1.9,1,2.5l10.7,10.7
				c1.4,1.4,3.6,1.4,5,0c0,0,0,0,0,0c1.4-1.4,1.4-3.6,0-5c0,0,0,0,0,0L935.1,799.2z"/>
		</g>
	</g>
</g>
<g id="hand">
</g>
</svg>
