<?xml version="1.0" encoding="utf-8"?>
<!-- Generator: Adobe Illustrator 21.1.0, SVG Export Plug-In . SVG Version: 6.00 Build 0)  -->
<svg version="1.1" xmlns="http://www.w3.org/2000/svg" xmlns:xlink="http://www.w3.org/1999/xlink" x="0px" y="0px"
	 viewBox="0 0 1920 1080" style="enable-background:new 0 0 1920 1080;" xml:space="preserve">
<style type="text/css">
	.st0{fill:#FFFFFF;}
	.st1{opacity:0.7;}
	.st2{opacity:0.2;}
	.st3{fill:#00FFFF;}
</style>
<g id="photo">
</g>
<g id="text">
	<g>
		<path class="st0" d="M846.5,507.3h12.7c6.7,0,12.3,2.3,12.3,9.9c0,4.6-2.4,8.1-7.1,9l8.3,13.8h-8.6l-6.8-13.1h-3.6V540h-7.2V507.3
			z M853.7,520.8h4.3c2.6,0,6.1-0.1,6.1-3.7c0-3.3-3-3.8-5.6-3.8h-4.7V520.8z"/>
		<path class="st0" d="M876.7,507.3h22.2v6.7h-15v6.1h14.2v6.7h-14.2v6.7h15.9v6.7h-23.1V507.3z"/>
		<path class="st0" d="M902.3,507.3h8.2l8.1,21.4h0.1l8.2-21.4h7.7L921.2,540h-5.8L902.3,507.3z"/>
		<path class="st0" d="M938.3,507.3h22.2v6.7h-15v6.1h14.2v6.7h-14.2v6.7h15.9v6.7h-23.1V507.3z"/>
		<path class="st0" d="M978,507.3h6l14.2,32.7H990l-2.8-6.9h-12.7l-2.7,6.9h-7.9L978,507.3z M980.7,516.8l-4,10.2h8L980.7,516.8z"/>
		<path class="st0" d="M1001.7,507.3h7.2v26.1h13.4v6.7h-20.6V507.3z"/>
	</g>
</g>
<g id="outline">
</g>
<g id="fill">
</g>
<g id="ray">
</g>
<g id="eye">
	<g>
		<path class="st3" d="M981.3,233.1c-0.8-1.2-22.4-29.1-49.8-29.1s-48.9,27.9-49.8,29.1c-0.8,1.2-0.8,2.9,0,4
			c0.8,1.2,22.4,29.1,49.8,29.1s48.9-27.9,49.8-29.1C982.2,236,982.2,234.3,981.3,233.1z M955.9,235.1c0,13.5-10.9,24.4-24.4,24.4
			s-24.4-10.9-24.4-24.4s10.9-24.4,24.4-24.4S955.9,221.7,955.9,235.1z M888.9,235.1c2.5-3,7.9-8.7,14.8-13.8
			c-2,4.2-3.2,8.9-3.2,13.8c0,5,1.2,9.6,3.2,13.8C896.8,243.9,891.4,238.2,888.9,235.1z M959.5,248.9c2-4.2,3.2-8.9,3.2-13.8
			c0-5-1.2-9.6-3.2-13.8c7.1,5.2,12.3,10.9,14.8,13.8C971.8,238.2,966.4,243.9,959.5,248.9z M914.7,235.1c0-9.2,7.6-16.8,16.8-16.8
			c1.5,0,2.9,0.2,4.2,0.5c-2.5,2-4.2,5-4.2,8.6c0,5.9,4.9,10.8,10.8,10.8c2.2,0,4.2-0.7,5.9-1.8c-0.7,8.7-7.9,15.5-16.8,15.5
			C922.3,252,914.7,244.4,914.7,235.1z"/>
	</g>
</g>
<g id="clock">
</g>
<g id="hand">
</g>
</svg>
