<?xml version="1.0" encoding="utf-8"?>
<!-- Generator: Adobe Illustrator 21.1.0, SVG Export Plug-In . SVG Version: 6.00 Build 0)  -->
<svg version="1.1" xmlns="http://www.w3.org/2000/svg" xmlns:xlink="http://www.w3.org/1999/xlink" x="0px" y="0px"
	 viewBox="0 0 1920 1080" style="enable-background:new 0 0 1920 1080;" xml:space="preserve">
<style type="text/css">
	.st0{fill:#FFFFFF;}
	.st1{opacity:0.7;}
	.st2{opacity:0.2;}
	.st3{fill:#00FFFF;}
</style>
<g id="photo">
</g>
<g id="text">
	<g>
		<path class="st0" d="M792.9,508.7h22.2v6.7h-15v6.1h14.2v6.7h-14.2v6.7H816v6.7h-23.1V508.7z"/>
		<path class="st0" d="M822.1,508.7h7.2v26.1h13.4v6.7h-20.6V508.7z"/>
		<path class="st0" d="M846.9,508.7h22.2v6.7h-15v6.1h14.2v6.7h-14.2v6.7h15.9v6.7h-23.1V508.7z"/>
		<path class="st0" d="M897.1,517.2c-1.4-1.7-3.5-2.7-6.2-2.7c-5.5,0-9.5,4.4-9.5,10.5s4,10.5,9.2,10.5c2.9,0,5.3-1.3,6.7-3.5l6,4.5
			c-2.7,3.9-7.3,5.7-11.8,5.7c-10.2,0-17.7-6.7-17.7-17.2c0-10.5,7.4-17.2,17.7-17.2c3.7,0,8.3,1.2,11,4.8L897.1,517.2z"/>
		<path class="st0" d="M913.7,515h-9.3v-6.4h25.9v6.4h-9.3v26.3h-7.2V515z"/>
		<path class="st0" d="M933.9,508.7h12.7c6.7,0,12.3,2.3,12.3,9.9c0,4.6-2.4,8.1-7.1,9l8.3,13.8h-8.6l-6.8-13.1h-3.6v13.1h-7.2
			V508.7z M941.1,522.2h4.3c2.6,0,6.1-0.1,6.1-3.7c0-3.3-3-3.8-5.6-3.8h-4.7V522.2z"/>
		<path class="st0" d="M963.8,508.7h7.2v32.7h-7.2V508.7z"/>
		<path class="st0" d="M998.9,517.2c-1.4-1.7-3.5-2.7-6.2-2.7c-5.5,0-9.5,4.4-9.5,10.5s4,10.5,9.2,10.5c2.9,0,5.3-1.3,6.7-3.5l6,4.5
			c-2.7,3.9-7.3,5.7-11.8,5.7c-10.2,0-17.7-6.7-17.7-17.2c0-10.5,7.4-17.2,17.7-17.2c3.7,0,8.3,1.2,11,4.8L998.9,517.2z"/>
		<path class="st0" d="M1009.1,508.7h7.2v32.7h-7.2V508.7z"/>
		<path class="st0" d="M1029.2,515h-9.3v-6.4h25.9v6.4h-9.3v26.3h-7.2V515z"/>
		<path class="st0" d="M1057.5,527.4l-12.3-18.8h9l6.9,12.2l7.3-12.2h8.6l-12.3,18.8v14h-7.2V527.4z"/>
	</g>
</g>
<g id="outline">
</g>
<g id="fill">
</g>
<g id="ray">
	<g>
		<path class="st3" d="M677.7,522.2c0.1-0.1,0.1-0.1,0.2-0.2c0,0,0,0,0,0c0,0,0,0,0,0c0.3-0.5,0.6-1.1,0.5-1.7c0-0.1,0-0.3,0-0.4
			c-0.1-0.6-0.3-1.2-0.8-1.6c0,0,0,0,0,0c0,0,0,0,0,0c0,0-0.1-0.1-0.1-0.1c0,0-0.1,0-0.1-0.1c0,0,0,0,0,0c-0.1,0-0.1-0.1-0.2-0.1
			c-0.4-0.3-0.9-0.4-1.4-0.5c-0.1,0-0.1,0-0.2,0c-1.9-0.2-3.7-0.5-5.6-0.7c-2.5-0.3-5-0.7-7.5-1c0.1-0.3,0.1-0.5,0.2-0.8
			c0.7-3.1,1.4-6.2,2.2-9.4c0.9-3.8,1.7-7.6,2.6-11.3c0.7-3.3,1.5-6.5,2.3-9.8c0.4-1.6,0.8-3.2,1.1-4.8c0,0,0,0,0-0.1
			c0.3-1.2-0.2-2.6-1.3-3.2c-1.1-0.6-2.5-0.5-3.4,0.4c-1.3,1.3-2.6,2.6-3.9,3.9c-3.1,3.1-6.2,6.2-9.3,9.3
			c-3.8,3.8-7.6,7.6-11.4,11.4c-3.3,3.3-6.5,6.5-9.8,9.8c-1.6,1.6-3.2,3.1-4.8,4.8c0,0,0,0-0.1,0.1c-0.8,0.8-1,2.1-0.6,3.1
			c0.2,0.5,0.5,0.8,0.9,1.1c0.5,0.4,1,0.5,1.7,0.6c1.9,0.2,3.7,0.5,5.6,0.7c2.5,0.3,5,0.7,7.5,1c-0.1,0.3-0.1,0.5-0.2,0.8
			c-0.7,3.1-1.4,6.2-2.2,9.4c-0.9,3.8-1.7,7.6-2.6,11.3c-0.7,3.3-1.5,6.5-2.3,9.8c-0.4,1.6-0.8,3.2-1.1,4.8c0,0,0,0,0,0.1
			c-0.3,1.2,0.2,2.6,1.3,3.2c1.1,0.6,2.5,0.5,3.4-0.4c1.3-1.3,2.6-2.6,3.9-3.9c3.1-3.1,6.2-6.2,9.3-9.3c3.8-3.8,7.6-7.6,11.4-11.4
			c3.3-3.3,6.5-6.5,9.8-9.8c1.6-1.6,3.2-3.2,4.8-4.8C677.5,522.4,677.6,522.3,677.7,522.2L677.7,522.2
			C677.6,522.3,677.6,522.3,677.7,522.2z M660.3,531.6c-3.8,3.8-7.6,7.6-11.4,11.4c-2.5,2.5-5.1,5.1-7.6,7.6
			c0.3-1.2,0.5-2.3,0.8-3.5c0.9-3.8,1.7-7.6,2.6-11.3c0.7-3.3,1.5-6.5,2.3-9.8c0.4-1.6,0.8-3.2,1.1-4.8c0,0,0,0,0-0.1
			c0.2-0.9,0.1-1.7-0.5-2.5c-0.6-0.8-1.3-1-2.2-1.1c-1.9-0.2-3.7-0.5-5.6-0.7c-1.6-0.2-3.2-0.4-4.9-0.6c3.1-3.1,6.1-6.1,9.2-9.2
			c3.8-3.8,7.6-7.6,11.4-11.4c2.5-2.5,5.1-5.1,7.6-7.6c-0.3,1.2-0.5,2.3-0.8,3.5c-0.9,3.8-1.7,7.6-2.6,11.3
			c-0.7,3.3-1.5,6.5-2.3,9.8c-0.4,1.6-0.8,3.2-1.1,4.8c0,0,0,0,0,0.1c-0.2,0.9-0.1,1.7,0.5,2.5c0.6,0.8,1.3,1,2.2,1.1
			c1.9,0.2,3.7,0.5,5.6,0.7c1.6,0.2,3.2,0.4,4.9,0.7C666.5,525.4,663.4,528.5,660.3,531.6z"/>
	</g>
</g>
<g id="eye">
</g>
<g id="clock">
</g>
<g id="hand">
</g>
</svg>
